# File created by Blade
# Date/Time:  Tue Sep 30 19:09:10 2014
#---------------------------------------------------------
:version 1.10
:name HOM
:units
  mass 1.0
  length 1.000000
  angle deg
:documentation
     Acclaim Skeleton File
:root
   axis xyz
   order TX TY TZ RX RY RZ
   position 0.000000 0.000000 0.000000
   orientation 0 0 0
:bonedata
   begin
      id 1
      name Spine_dum
      direction 0.000000 1.000000 0.000000
      length 7.508948
      axis 0.0 0.0 0.0 xyz
   end
   begin
      id 2
      name LeftUpLeg_dum
      direction 1.000000 0.000000 0.000000
      length 3.000560
      axis 0.0 0.0 0.0 xyz
   end
   begin
      id 3
      name RightUpLeg_dum
      direction -1.000000 0.000000 0.000000
      length 3.000560
      axis 0.0 0.0 0.0 xyz
   end
   begin
      id 4
      name Spine
      direction 0.000000 1.000000 0.000000
      length 0.000000
      axis 0.0 0.0 0.0 xyz
      dof rx ry rz
   end
   begin
      id 5
      name Spine_dum1
      direction 0.000000 1.000000 0.000000
      length 13.861154
      axis 0.0 0.0 0.0 xyz
   end
   begin
      id 6
      name Spine_dum2
      direction 0.000000 1.000000 0.000000
      length 8.204781
      axis 0.0 0.0 0.0 xyz
   end
   begin
      id 7
      name Spine_dum3
      direction 0.000000 1.000000 0.000000
      length 8.204781
      axis 0.0 0.0 0.0 xyz
   end
   begin
      id 8
      name Head
      direction 0.000000 1.000000 0.000000
      length 4.527550
      axis 0.0 0.0 0.0 xyz
      dof rx ry rz
   end
   begin
      id 9
      name LeftShoulder
      direction 1.000000 0.000000 0.000000
      length 6.635956
      axis 0.0 0.0 -90.0 xyz
      dof rx ry rz
   end
   begin
      id 10
      name LeftArm
      direction 1.000000 0.000000 0.000000
      length 10.274218
      axis 0.0 0.0 -90.0 xyz
      dof rx ry rz
   end
   begin
      id 11
      name LeftForeArm
      direction 1.000000 0.000000 0.000000
      length 8.522147
      axis 0.0 0.0 -90.0 xyz
      dof ry rz rx
   end
   begin
      id 12
      name LeftHand
      direction 0.000000 0.000000 0.000000
      length 0.000000
      axis 0.0 0.0 -90.0 xyz
      dof rx ry rz
   end
   begin
      id 13
      name LeftHand_dum1
      direction 0.000000 0.000000 0.000000
      length 0.000000
      axis 0.0 0.0 -90.0 xyz
   end
   begin
      id 14
      name LeftHand_dum2
      direction 1.000000 0.000000 0.000000
      length 3.937000
      axis 0.0 0.0 -90.0 xyz
   end
   begin
      id 15
      name LeftHandThumb1
      direction 0.000000 0.000000 1.000000
      length 3.937000
      axis 0.0 0.0 -90.0 xyz
      dof rx rz ry
   end
   begin
      id 16
      name RightShoulder
      direction -1.000000 0.000000 0.000000
      length 6.635956
      axis 0.0 0.0 90.0 xyz
      dof rx ry rz
   end
   begin
      id 17
      name RightArm
      direction -1.000000 0.000000 0.000000
      length 10.274218
      axis 0.0 0.0 90.0 xyz
      dof rx ry rz
   end
   begin
      id 18
      name RightForeArm
      direction -1.000000 0.000000 0.000000
      length 8.522147
      axis 0.0 0.0 90.0 xyz
      dof ry rz rx
   end
   begin
      id 19
      name RightHand
      direction 0.000000 0.000000 0.000000
      length 0.000000
      axis 0.0 0.0 90.0 xyz
      dof rx ry rz
   end
   begin
      id 20
      name RightHand_dum1
      direction 0.000000 0.000000 0.000000
      length 0.000000
      axis 0.0 0.0 90.0 xyz
   end
   begin
      id 21
      name RightHand_dum2
      direction -1.000000 0.000000 0.000000
      length 3.937000
      axis 0.0 0.0 90.0 xyz
   end
   begin
      id 22
      name RightHandThumb1
      direction 0.000000 0.000000 1.000000
      length 3.937000
      axis 0.0 0.0 90.0 xyz
      dof rx rz ry
   end
   begin
      id 23
      name LeftUpLeg
      direction 0.000000 -1.000000 0.000000
      length 16.490845
      axis 0.0 0.0 0.0 xyz
      dof rx ry rz
   end
   begin
      id 24
      name LeftLeg
      direction 0.000000 -1.000000 0.000000
      length 14.556576
      axis 0.0 0.0 0.0 xyz
      dof rx ry rz
   end
   begin
      id 25
      name LeftFoot
      direction 0.000000 -0.258819 0.965926
      length 4.831116
      axis 15.0 0.0 0.0 xyz
      dof rx ry rz
   end
   begin
      id 26
      name LeftToeBase
      direction 0.000000 0.000000 1.000000
      length 2.952750
      axis 0.0 0.0 0.0 xyz
      dof rx ry rz
   end
   begin
      id 27
      name RightUpLeg
      direction 0.000000 -1.000000 0.000000
      length 16.490845
      axis 0.0 0.0 0.0 xyz
      dof rx ry rz
   end
   begin
      id 28
      name RightLeg
      direction 0.000000 -1.000000 0.000000
      length 14.556576
      axis 0.0 0.0 0.0 xyz
      dof rx ry rz
   end
   begin
      id 29
      name RightFoot
      direction 0.000000 -0.258819 0.965926
      length 4.831116
      axis 15.0 0.0 0.0 xyz
      dof rx ry rz
   end
   begin
      id 30
      name RightToeBase
      direction 0.000000 0.000000 1.000000
      length 2.952750
      axis 0.0 0.0 0.0 xyz
      dof rx ry rz
   end
:hierarchy
   begin
      root Spine_dum LeftUpLeg_dum RightUpLeg_dum
      Spine_dum Spine
      LeftUpLeg_dum LeftUpLeg
      RightUpLeg_dum RightUpLeg
      Spine Spine_dum1 Spine_dum2 Spine_dum3
      Spine_dum1 Head
      Spine_dum2 LeftShoulder
      Spine_dum3 RightShoulder
      LeftShoulder LeftArm
      LeftArm LeftForeArm
      LeftForeArm LeftHand
      LeftHand LeftHand_dum1 LeftHand_dum2
      LeftHand_dum1 LeftHandThumb1
      RightShoulder RightArm
      RightArm RightForeArm
      RightForeArm RightHand
      RightHand RightHand_dum1 RightHand_dum2
      RightHand_dum1 RightHandThumb1
      LeftUpLeg LeftLeg
      LeftLeg LeftFoot
      LeftFoot LeftToeBase
      RightUpLeg RightLeg
      RightLeg RightFoot
      RightFoot RightToeBase
   end

# File created by Blade
# Date/Time:  Wed Sep 24 19:42:34 2014
# Frame Rate: 120.000 fps
#------------------------------------------------------
:FULLY-SPECIFIED
:DEGREES
568
root -4.782568 32.992923 -2.791885 7.571993 6.280075 -2.209135
Spine -14.668436 13.600393 -1.748957
Head 14.287820 -24.926102 17.703533
LeftShoulder -8.841362 19.091224 10.979833
LeftArm 22.913069 38.644438 -69.456464
LeftForeArm -0.739097 -0.000000 24.459575
LeftHand -23.388553 -0.000000 -8.364694
LeftHandThumb1 -26.253704 0.000000 33.147579
RightShoulder -116.948058 52.648991 -180.736244
RightArm -24.186618 21.136264 47.035892
RightForeArm 67.682502 -0.000000 159.968890
RightHand 11.476913 -0.000000 13.288826
RightHandThumb1 -24.326973 -0.000000 -32.862282
LeftUpLeg -1.471742 2.512030 6.722478
LeftLeg -2.515112 -0.000000 0.000000
LeftFoot -7.864649 3.607296 -18.736520
LeftToeBase 10.018069 -0.000000 -0.000000
RightUpLeg -2.116726 -11.038220 0.881151
RightLeg 0.943104 -0.000000 -0.000000
RightFoot -6.325400 -5.030397 -14.635547
RightToeBase 0.263857 -0.000000 -0.000000
569
root -4.785180 32.993559 -2.792808 7.559735 6.287976 -2.220896
Spine -14.650533 13.616246 -1.753321
Head 14.228818 -25.163660 17.718924
LeftShoulder -8.833429 19.097051 10.972347
LeftArm 22.918131 38.601166 -69.438205
LeftForeArm -0.726243 0.000000 24.473168
LeftHand -23.387806 -0.000000 -8.387383
LeftHandThumb1 -26.253704 0.000000 33.147579
RightShoulder -116.978148 52.620780 -180.763507
RightArm -24.189338 21.194809 47.089169
RightForeArm 67.741162 0.000000 159.933202
RightHand 11.528772 -0.000000 13.265222
RightHandThumb1 -24.326973 -0.000000 -32.862282
LeftUpLeg -1.464684 2.516258 6.739407
LeftLeg -2.514990 -0.000000 0.000000
LeftFoot -7.856112 3.592710 -18.733443
LeftToeBase 10.010756 -0.000000 -0.000000
RightUpLeg -2.106868 -11.048013 0.895041
RightLeg 0.941925 -0.000000 -0.000000
RightFoot -6.312060 -5.014760 -14.638962
RightToeBase 0.241634 -0.000000 -0.000000
570
root -4.785801 32.993778 -2.795385 7.558196 6.305389 -2.223462
Spine -14.639117 13.627618 -1.759367
Head 14.170561 -25.368470 17.724161
LeftShoulder -8.830952 19.083051 10.962399
LeftArm 22.917192 38.599393 -69.410362
LeftForeArm -0.745043 -0.000000 24.494020
LeftHand -23.372268 0.000000 -8.397296
LeftHandThumb1 -26.253704 0.000000 33.147579
RightShoulder -117.000693 52.598164 -180.794490
RightArm -24.183178 21.275191 47.124145
RightForeArm 67.858585 -0.000000 159.885548
RightHand 11.468597 -0.000000 13.354079
RightHandThumb1 -24.326973 -0.000000 -32.862282
LeftUpLeg -1.476110 2.495966 6.744179
LeftLeg -2.506196 -0.000000 0.000000
LeftFoot -7.863290 3.594518 -18.737582
LeftToeBase 10.065874 -0.000000 -0.000000
RightUpLeg -2.115399 -11.062026 0.901613
RightLeg 0.955397 -0.000000 -0.000000
RightFoot -6.319322 -5.005350 -14.597619
RightToeBase 0.250463 -0.000000 -0.000000
571
root -4.787286 32.993864 -2.797178 7.554312 6.318524 -2.230029
Spine -14.628506 13.646860 -1.764273
Head 14.112403 -25.586504 17.716181
LeftShoulder -8.854383 19.085701 10.945217
LeftArm 22.985687 38.639297 -69.325975
LeftForeArm -0.807200 -0.000000 24.489770
LeftHand -23.357205 -0.000000 -8.386814
LeftHandThumb1 -26.253704 0.000000 33.147579
RightShoulder -117.045977 52.553168 -180.867336
RightArm -24.217174 21.330141 47.164547
RightForeArm 67.861558 0.000000 159.855644
RightHand 11.509614 0.000000 13.261715
RightHandThumb1 -24.326973 -0.000000 -32.862282
LeftUpLeg -1.478006 2.504951 6.753537
LeftLeg -2.509178 -0.000000 0.000000
LeftFoot -7.844315 3.579267 -18.713626
LeftToeBase 10.020375 -0.000000 -0.000000
RightUpLeg -2.108496 -11.058515 0.910376
RightLeg 0.942615 -0.000000 -0.000000
RightFoot -6.307057 -5.019015 -14.615620
RightToeBase 0.241568 -0.000000 -0.000000
572
root -4.788853 32.994236 -2.798980 7.553583 6.328935 -2.239759
Spine -14.625072 13.652723 -1.769009
Head 14.057857 -25.802095 17.732148
LeftShoulder -8.836011 19.101399 10.944446
LeftArm 22.979107 38.595691 -69.323352
LeftForeArm -0.760196 -0.000000 24.513315
LeftHand -23.362990 0.000000 -8.391605
LeftHandThumb1 -26.253704 0.000000 33.147579
RightShoulder -117.161249 52.503036 -181.021731
RightArm -24.319114 21.396531 47.151485
RightForeArm 67.940763 -0.000000 159.821286
RightHand 11.546774 -0.000000 13.173519
RightHandThumb1 -24.326973 -0.000000 -32.862282
LeftUpLeg -1.487223 2.495149 6.767014
LeftLeg -2.502026 -0.000000 0.000000
LeftFoot -7.846461 3.577359 -18.730851
LeftToeBase 10.016879 -0.000000 -0.000000
RightUpLeg -2.117553 -11.063398 0.925499
RightLeg 0.954970 -0.000000 -0.000000
RightFoot -6.308426 -5.021764 -14.605860
RightToeBase 0.272352 -0.000000 -0.000000
573
root -4.789579 32.994695 -2.800286 7.549866 6.337635 -2.243778
Spine -14.618786 13.659174 -1.778154
Head 14.003541 -26.033610 17.746591
LeftShoulder -8.827251 19.103785 10.945120
LeftArm 22.978044 38.592692 -69.307217
LeftForeArm -0.783360 0.000000 24.534531
LeftHand -23.407411 -0.000000 -8.328546
LeftHandThumb1 -26.253704 0.000000 33.147579
RightShoulder -117.158219 52.509144 -181.007878
RightArm -24.324901 21.533070 47.159243
RightForeArm 68.010283 -0.000000 159.780945
RightHand 11.529847 0.000000 13.125175
RightHandThumb1 -24.326973 -0.000000 -32.862282
LeftUpLeg -1.484619 2.489538 6.773571
LeftLeg -2.508979 -0.000000 0.000000
LeftFoot -7.850034 3.566414 -18.777707
LeftToeBase 10.057706 -0.000000 -0.000000
RightUpLeg -2.119122 -11.070799 0.931085
RightLeg 0.962209 -0.000000 -0.000000
RightFoot -6.298956 -5.027783 -14.606953
RightToeBase 0.259285 -0.000000 -0.000000
574
root -4.790595 32.994477 -2.801679 7.545865 6.355127 -2.247797
Spine -14.607927 13.680886 -1.790038
Head 13.926380 -26.267580 17.774305
LeftShoulder -8.834813 19.092566 10.940034
LeftArm 23.017814 38.621850 -69.253690
LeftForeArm -0.812137 -0.000000 24.534098
LeftHand -23.434132 0.000000 -8.372422
LeftHandThumb1 -26.253704 0.000000 33.147579
RightShoulder -117.146304 52.505868 -181.044436
RightArm -24.434732 21.685525 47.071392
RightForeArm 68.111987 -0.000000 159.754474
RightHand 11.551751 0.000000 13.147554
RightHandThumb1 -24.326973 -0.000000 -32.862282
LeftUpLeg -1.488175 2.476740 6.780203
LeftLeg -2.506030 -0.000000 0.000000
LeftFoot -7.842642 3.574531 -18.725139
LeftToeBase 9.991386 -0.000000 -0.000000
RightUpLeg -2.115134 -11.076069 0.938275
RightLeg 0.957707 -0.000000 -0.000000
RightFoot -6.296290 -5.025590 -14.607402
RightToeBase 0.239841 -0.000000 -0.000000
